<svg viewBox="0 0 100 100" xmlns="http://www.w3.org/2000/svg" style="height: 100%; width: 100%; background: rgb(255, 255, 255);" width="200px" height="200px"><g class="ldl-scale" style="transform-origin: 50% 50%; transform: rotate(0deg) scale(0.8, 0.8);"><g class="ldl-ani"><g class="ldl-layer"><g class="ldl-ani"><g><g class="ldl-layer"><g class="ldl-ani"><g><g class="ldl-layer"><g class="ldl-ani" style="transform-origin: 50px 50px; opacity: 1; animation: 1.11111s linear -0.601852s infinite normal forwards running blink-462a95a6-8252-44fd-8fff-40eba4b8ef1f;"><path fill="#e0e0e0" d="M58.447 76.212H41.553a1.187 1.187 0 0 1 0-2.374h16.893a1.187 1.187 0 0 1 .001 2.374z" style="fill: rgb(224, 224, 224);"></path></g></g></g></g></g><g class="ldl-layer"><g class="ldl-ani"><g><g class="ldl-layer"><g class="ldl-ani" style="transform-origin: 50px 50px; opacity: 1; animation: 1.11111s linear -0.648148s infinite normal forwards running blink-462a95a6-8252-44fd-8fff-40eba4b8ef1f;"><path fill="#e0e0e0" d="M58.447 80.167H41.553a1.187 1.187 0 0 1 0-2.374h16.893a1.187 1.187 0 0 1 .001 2.374z" style="fill: rgb(224, 224, 224);"></path></g></g></g></g></g><g class="ldl-layer"><g class="ldl-ani"><g><g class="ldl-layer"><g class="ldl-ani" style="transform-origin: 50px 50px; opacity: 1; animation: 1.11111s linear -0.694444s infinite normal forwards running blink-462a95a6-8252-44fd-8fff-40eba4b8ef1f;"><path fill="#e0e0e0" d="M58.447 84.123H41.553a1.187 1.187 0 0 1 0-2.374h16.893a1.187 1.187 0 0 1 .001 2.374z" style="fill: rgb(224, 224, 224);"></path></g></g></g></g></g><g class="ldl-layer"><g class="ldl-ani" style="transform-origin: 50px 50px; opacity: 1; animation: 1.11111s linear -0.740741s infinite normal forwards running blink-462a95a6-8252-44fd-8fff-40eba4b8ef1f;"><path fill="#e0e0e0" d="M54.884 90h-9.767c-.44 0-.828-.286-.959-.706l-.667-2.139a1.005 1.005 0 0 1 .959-1.304h11.102c.678 0 1.161.657.959 1.304l-.667 2.139c-.132.42-.521.706-.96.706z" style="fill: rgb(224, 224, 224);"></path></g></g></g></g></g><g class="ldl-layer"><g class="ldl-ani" style="transform-origin: 50px 50px; opacity: 1; animation: 1.11111s linear -0.787037s infinite normal forwards running blink-462a95a6-8252-44fd-8fff-40eba4b8ef1f;"><path fill="#f5e169" d="M70.089 47.422c0-11.522-9.7-20.779-21.38-20.048-9.786.612-17.836 8.423-18.714 18.189-.675 7.503 2.781 14.246 8.35 18.219a4.588 4.588 0 0 1 1.916 3.737v.003a4.613 4.613 0 0 0 4.613 4.613h10.25a4.613 4.613 0 0 0 4.613-4.613c0-1.461.675-2.859 1.867-3.704 5.134-3.64 8.485-9.625 8.485-16.396z" style="fill: rgb(245, 225, 105);"></path></g></g><g class="ldl-layer"><g class="ldl-ani"><g><g class="ldl-layer"><g class="ldl-ani" style="transform-origin: 50px 50px; opacity: 1; animation: 1.11111s linear -0.833333s infinite normal forwards running blink-462a95a6-8252-44fd-8fff-40eba4b8ef1f;"><path d="M23.801 73.25l7.652-7.652" stroke-miterlimit="10" stroke-linecap="round" stroke-width="3" stroke="#f7b26a" fill="none" style="stroke: rgb(247, 178, 106);"></path></g></g><g class="ldl-layer"><g class="ldl-ani" style="transform-origin: 50px 50px; opacity: 1; animation: 1.11111s linear -0.87963s infinite normal forwards running blink-462a95a6-8252-44fd-8fff-40eba4b8ef1f;"><path d="M12.949 47.051h10.822" stroke-miterlimit="10" stroke-linecap="round" stroke-width="3" stroke="#f7b26a" fill="none" style="stroke: rgb(247, 178, 106);"></path></g></g><g class="ldl-layer"><g class="ldl-ani" style="transform-origin: 50px 50px; opacity: 1; animation: 1.11111s linear -0.925926s infinite normal forwards running blink-462a95a6-8252-44fd-8fff-40eba4b8ef1f;"><path d="M23.801 20.852l7.652 7.652" stroke-miterlimit="10" stroke-linecap="round" stroke-width="3" stroke="#f7b26a" fill="none" style="stroke: rgb(247, 178, 106);"></path></g></g><g class="ldl-layer"><g class="ldl-ani" style="transform-origin: 50px 50px; opacity: 1; animation: 1.11111s linear -0.972222s infinite normal forwards running blink-462a95a6-8252-44fd-8fff-40eba4b8ef1f;"><path d="M50 10v10.822" stroke-miterlimit="10" stroke-linecap="round" stroke-width="3" stroke="#f7b26a" fill="none" style="stroke: rgb(247, 178, 106);"></path></g></g><g class="ldl-layer"><g class="ldl-ani" style="transform-origin: 50px 50px; opacity: 1; animation: 1.11111s linear -1.01852s infinite normal forwards running blink-462a95a6-8252-44fd-8fff-40eba4b8ef1f;"><path d="M76.199 20.852l-7.652 7.652" stroke-miterlimit="10" stroke-linecap="round" stroke-width="3" stroke="#f7b26a" fill="none" style="stroke: rgb(247, 178, 106);"></path></g></g><g class="ldl-layer"><g class="ldl-ani" style="transform-origin: 50px 50px; opacity: 1; animation: 1.11111s linear -1.06481s infinite normal forwards running blink-462a95a6-8252-44fd-8fff-40eba4b8ef1f;"><path d="M87.051 47.051H76.229" stroke-miterlimit="10" stroke-linecap="round" stroke-width="3" stroke="#f7b26a" fill="none" style="stroke: rgb(247, 178, 106);"></path></g></g><g class="ldl-layer"><g class="ldl-ani" style="transform-origin: 50px 50px; opacity: 1; animation: 1.11111s linear -1.11111s infinite normal forwards running blink-462a95a6-8252-44fd-8fff-40eba4b8ef1f;"><path d="M76.199 73.25l-7.652-7.652" stroke-miterlimit="10" stroke-linecap="round" stroke-width="3" stroke="#f7b26a" fill="none" style="stroke: rgb(247, 178, 106);"></path></g></g></g></g></g><metadata xmlns:d="https://loading.io/stock/">
<d:name>idea</d:name>
<d:tags>idea,creativity,brainstorming,information,inspiration,inspire,hint,smart,bulb</d:tags>
<d:license>by</d:license>
<d:slug>bn0z4v</d:slug>
</metadata></g></g></svg>