<svg width="423" height="50" viewBox="0 0 423 50" fill="none" xmlns="http://www.w3.org/2000/svg">
<path d="M11.3555 33.952C12.0275 36.256 13.2755 37.96 15.0995 39.064C16.9235 40.168 19.1795 40.72 21.8675 40.72C22.8755 40.72 23.8835 40.648 24.8915 40.504C25.9475 40.312 26.8835 40.024 27.6995 39.64C28.5155 39.208 29.1635 38.68 29.6435 38.056C30.1715 37.384 30.4355 36.592 30.4355 35.68C30.4355 34 29.6195 32.704 27.9875 31.792C26.3555 30.88 24.2435 30.16 21.6515 29.632L15.8195 28.48C13.8515 28.096 11.9795 27.568 10.2035 26.896C8.4275 26.176 6.8675 25.288 5.5235 24.232C4.2275 23.128 3.1715 21.832 2.3555 20.344C1.5875 18.808 1.2035 17.008 1.2035 14.944C1.2035 12.352 1.8035 10.12 3.0035 8.248C4.2515 6.376 5.8355 4.84 7.7555 3.64C9.7235 2.392 11.9075 1.48 14.3075 0.903997C16.7555 0.327999 19.1795 0.0399995 21.5795 0.0399995C23.5475 0.0399995 25.4675 0.231998 27.3395 0.615996C29.2115 0.999997 30.9635 1.624 32.5955 2.488C34.2275 3.304 35.6675 4.384 36.9155 5.728C38.2115 7.024 39.2435 8.608 40.0115 10.48L29.7155 14.224C29.0435 12.592 27.9155 11.344 26.3315 10.48C24.7955 9.616 22.8755 9.184 20.5715 9.184C18.3635 9.184 16.5155 9.592 15.0275 10.408C13.5875 11.176 12.8675 12.304 12.8675 13.792C12.8675 15.04 13.3475 16.096 14.3075 16.96C15.3155 17.776 16.6595 18.352 18.3395 18.688L24.8195 19.984C26.7875 20.368 28.7795 20.848 30.7955 21.424C32.8595 22 34.7075 22.816 36.3395 23.872C38.0195 24.88 39.3875 26.2 40.4435 27.832C41.5475 29.416 42.0995 31.456 42.0995 33.952C42.0995 36.496 41.4995 38.776 40.2995 40.792C39.1475 42.76 37.6115 44.416 35.6915 45.76C33.7715 47.104 31.5875 48.136 29.1395 48.856C26.7395 49.528 24.2915 49.864 21.7955 49.864C16.5155 49.864 12.0995 48.808 8.5475 46.696C4.9955 44.584 2.4755 41.584 0.9875 37.696L11.3555 33.952Z" fill="black"/>
<path d="M70.6216 0.0399995C75.1816 0.0399995 79.1416 1.048 82.5016 3.064C85.9096 5.08 88.5256 7.792 90.3496 11.2L80.2696 14.872C79.1656 12.904 77.7016 11.512 75.8776 10.696C74.1016 9.832 72.2296 9.4 70.2616 9.4C68.5816 9.4 67.0216 9.76 65.5816 10.48C64.1416 11.152 62.8696 12.16 61.7656 13.504C60.7096 14.848 59.8696 16.48 59.2456 18.4C58.6216 20.32 58.3096 22.504 58.3096 24.952C58.3096 27.448 58.6216 29.68 59.2456 31.648C59.8696 33.568 60.7096 35.2 61.7656 36.544C62.8696 37.84 64.1416 38.824 65.5816 39.496C67.0696 40.168 68.6776 40.504 70.4056 40.504C71.3176 40.504 72.2536 40.432 73.2136 40.288C74.1736 40.096 75.1096 39.808 76.0216 39.424C76.9336 38.992 77.7736 38.44 78.5416 37.768C79.3576 37.048 80.0536 36.16 80.6296 35.104L90.6376 38.776C88.6696 42.232 85.9336 44.944 82.4296 46.912C78.9256 48.88 74.8936 49.864 70.3336 49.864C66.5896 49.864 63.2296 49.288 60.2536 48.136C57.2776 46.984 54.7576 45.328 52.6936 43.168C50.6296 41.008 49.0456 38.392 47.9416 35.32C46.8376 32.248 46.2856 28.792 46.2856 24.952C46.2856 21.16 46.8376 17.728 47.9416 14.656C49.0936 11.584 50.7256 8.968 52.8376 6.808C54.9496 4.648 57.4936 2.992 60.4696 1.84C63.4936 0.639999 66.8776 0.0399995 70.6216 0.0399995ZM95.9414 0.903997H107.317V19.264H127.117V0.903997H138.493V49H127.117V29.272H107.317V49H95.9414V0.903997Z" fill="black" fill-opacity="0.875"/>
<path d="M144.161 24.952C144.161 21.208 144.761 17.8 145.961 14.728C147.161 11.656 148.865 9.04 151.073 6.88C153.281 4.72 155.897 3.04 158.921 1.84C161.993 0.639999 165.377 0.0399995 169.073 0.0399995C172.769 0.0399995 176.153 0.639999 179.225 1.84C182.297 3.04 184.937 4.72 187.145 6.88C189.353 9.04 191.057 11.656 192.257 14.728C193.505 17.8 194.129 21.208 194.129 24.952C194.129 28.696 193.505 32.104 192.257 35.176C191.057 38.248 189.353 40.864 187.145 43.024C184.937 45.184 182.297 46.864 179.225 48.064C176.153 49.264 172.769 49.864 169.073 49.864C165.377 49.864 161.993 49.264 158.921 48.064C155.897 46.864 153.281 45.184 151.073 43.024C148.865 40.864 147.161 38.248 145.961 35.176C144.761 32.104 144.161 28.696 144.161 24.952ZM156.185 24.952C156.185 27.496 156.521 29.752 157.193 31.72C157.913 33.64 158.849 35.248 160.001 36.544C161.201 37.84 162.569 38.824 164.105 39.496C165.689 40.168 167.345 40.504 169.073 40.504C170.849 40.504 172.505 40.168 174.041 39.496C175.625 38.824 176.993 37.84 178.145 36.544C179.345 35.248 180.281 33.64 180.953 31.72C181.673 29.752 182.033 27.496 182.033 24.952C182.033 22.408 181.673 20.176 180.953 18.256C180.281 16.288 179.345 14.656 178.145 13.36C176.993 12.064 175.625 11.08 174.041 10.408C172.505 9.736 170.849 9.4 169.073 9.4C167.345 9.4 165.689 9.736 164.105 10.408C162.569 11.08 161.201 12.064 160.001 13.36C158.849 14.656 157.913 16.288 157.193 18.256C156.521 20.176 156.185 22.408 156.185 24.952Z" fill="black" fill-opacity="0.75"/>
<path d="M234.209 38.992V49H199.793V0.903997H211.169V38.992H234.209ZM255.912 0.903997H268.44L286.656 49H274.272L271.392 40.432H252.96L250.08 49H237.696L255.912 0.903997ZM256.056 31.216H268.296L262.104 12.928L256.056 31.216Z" fill="black" fill-opacity="0.625"/>
<path d="M308.719 0.903997C311.839 0.903997 314.719 1.12 317.359 1.552C320.047 1.984 322.351 2.752 324.271 3.856C326.239 4.96 327.775 6.496 328.879 8.464C329.983 10.384 330.535 12.832 330.535 15.808C330.535 17.152 330.343 18.52 329.959 19.912C329.623 21.304 329.023 22.624 328.159 23.872C327.295 25.072 326.119 26.176 324.631 27.184C323.143 28.192 321.247 29.008 318.943 29.632L332.911 49H319.735L306.703 30.856H301.591V49H290.215V0.903997H308.719ZM301.591 21.352H309.079C310.423 21.352 311.671 21.28 312.823 21.136C313.975 20.992 314.959 20.728 315.775 20.344C316.639 19.912 317.311 19.36 317.791 18.688C318.271 17.968 318.511 17.056 318.511 15.952C318.511 14.848 318.271 13.936 317.791 13.216C317.311 12.496 316.639 11.944 315.775 11.56C314.959 11.128 313.975 10.84 312.823 10.696C311.671 10.552 310.423 10.48 309.079 10.48H301.591V21.352Z" fill="black" fill-opacity="0.5"/>
<path d="M337.324 0.903997H374.332V10.912H348.7V19.264H364.324V29.272H348.7V38.992H374.332V49H337.324V0.903997ZM394.93 0.903997C398.866 0.903997 402.514 1.312 405.874 2.128C409.282 2.896 412.234 4.216 414.73 6.088C417.226 7.96 419.194 10.432 420.634 13.504C422.074 16.576 422.794 20.392 422.794 24.952C422.794 29.56 422.074 33.4 420.634 36.472C419.194 39.544 417.226 42.016 414.73 43.888C412.234 45.712 409.282 47.032 405.874 47.848C402.514 48.616 398.866 49 394.93 49H379.09V0.903997H394.93ZM390.466 39.424H395.146C397.21 39.424 399.202 39.28 401.122 38.992C403.042 38.656 404.722 37.984 406.162 36.976C407.65 35.92 408.826 34.456 409.69 32.584C410.602 30.664 411.058 28.12 411.058 24.952C411.058 21.784 410.602 19.24 409.69 17.32C408.826 15.4 407.65 13.936 406.162 12.928C404.722 11.872 403.042 11.176 401.122 10.84C399.202 10.504 397.21 10.336 395.146 10.336H390.466V39.424Z" fill="#653CAD"/>
</svg>
